# xmcd CD database file
#
# Track frame offsets:
#	150
#	13905
#	27246
#	40830
#	54625
#	69050
#	81151
#	95326
#	108106
#	121051
#	135558
#	148889
#	161796
#	174445
#	188716
#	203210
#	219560
#	233961
#	246267
#	261515
#
# Disc length: 3668 seconds
#
# Revision: 2
# Processed by: cddbd v1.4PL0 Copyright (c) Steve Scherf et al.
# Submitted via: CDex 1.50Beta7
#
DISCID=1b0e5214
DTITLE=Oscar Peterson - Complete RCA Recordings (Disc1)
DYEAR=2002
DGENRE=Jazz
TTITLE0=I Got Rythm
TTITLE1=Louise
TTITLE2=My Blue Heaven
TTITLE3=The Sheik of Araby
TTITLE4=Flying Home
TTITLE5=The C Jam Blues
TTITLE6=If I Could Be With You One Hour Tonight
TTITLE7=Humoresque
TTITLE8=Blue Moon
TTITLE9=In a Little Spanish Town
TTITLE10=Time on My Hands
TTITLE11=China Boy
TTITLE12=Runnin' Wild
TTITLE13=Sweet Lorraine 
TTITLE14=Honeydripper
TTITLE15=East of the Sund (West of the Moon)
TTITLE16=Back Home Again in Indiana
TTITLE17=Margie
TTITLE18=I Surrender Dear
TTITLE19=I Don't Stand a Ghost of a Chance with You 
EXTD=YEAR: 2002
EXTT0=
EXTT1=
EXTT2=
EXTT3=
EXTT4=
EXTT5=
EXTT6=
EXTT7=
EXTT8=
EXTT9=
EXTT10=
EXTT11=
EXTT12=
EXTT13=
EXTT14=
EXTT15=
EXTT16=
EXTT17=
EXTT18=
EXTT19=
PLAYORDER=
